<svg xmlns="http://www.w3.org/2000/svg" viewBox="0 0 260 50" width="260" height="50">
  <g transform="translate(5, 5)">
    <rect x="0" y="0" width="40" height="40" rx="8" fill="#0055A5"/>
    <path fill="#FFFFFF" d="M12 12 L28 12 L28 18 L20 18 L20 22 L28 22 L28 28 L12 28 Z"/>
    <circle cx="16" cy="20" r="2" fill="#00C4FF"/>
  </g>
  <g transform="translate(52, 5)">
    <rect x="0" y="0" width="40" height="40" rx="8" fill="#1E293B" stroke="#990000" stroke-width="1.5"/>
    <path fill="#990000" d="M10 12 L20 6 L30 12 L20 18 Z"/>
    <path fill="#0066CC" d="M10 12 L20 18 L20 32 L10 26 Z"/>
    <path fill="#009933" d="M30 12 L20 18 L20 32 L30 26 Z"/>
  </g>
  <text x="100" y="22" font-family="'Plus Jakarta Sans', sans-serif" font-weight="700" font-size="12" fill="currentColor">DriveWorks, VBA</text>
  <text x="100" y="36" font-family="'Plus Jakarta Sans', sans-serif" font-weight="700" font-size="12" fill="#38BDF8">&amp; WebGL Engine</text>
</svg>
